<svg width="401" height="288" viewBox="0 0 401 288" fill="none" xmlns="http://www.w3.org/2000/svg">
<path fill-rule="evenodd" clip-rule="evenodd" d="M0 118.35C0 84.2739 10.4784 56.0952 31.4351 33.8144C52.6539 11.2715 79.5048 0 111.988 0C144.471 0 171.191 11.2715 192.147 33.8144C213.366 56.0952 223.975 85.0603 223.975 120.71V148.626C223.975 182.178 213.497 210.226 192.54 232.769C171.845 255.05 145.257 266.19 112.774 266.19C80.5526 266.19 53.7017 255.181 32.221 233.162C10.7404 211.144 0 182.047 0 145.874V118.35ZM38.1151 148.626C38.1151 173.004 44.7951 193.057 58.155 208.784C71.7769 224.512 89.9831 232.376 112.774 232.376C135.04 232.376 152.722 224.512 165.82 208.784C179.18 192.795 185.86 172.218 185.86 147.053V118.35C185.86 93.9726 179.049 73.9199 165.427 58.1922C151.806 42.2025 133.992 34.2076 111.988 34.2076C90.2451 34.2076 72.4318 42.0714 58.548 57.7991C44.9261 73.5267 38.1151 94.4969 38.1151 120.71V148.626Z" fill="#FFBC42"/>
<path d="M392.519 76.3871C400.59 81.5563 403 92.2576 397.924 100.388L339.353 194.194L280.783 288H239.528L368.241 81.8547C373.401 73.5916 384.315 71.1335 392.519 76.3871Z" fill="#FFBC42"/>
</svg>
