<svg width="401" height="288" viewBox="0 0 401 288" fill="none" xmlns="http://www.w3.org/2000/svg">
<g clip-path="url(#clip0)">
<path fill-rule="evenodd" clip-rule="evenodd" d="M401 169.65C401 203.726 390.522 231.905 369.565 254.186C348.346 276.729 321.495 288 289.012 288C256.529 288 229.809 276.729 208.853 254.186C187.634 231.905 177.025 202.94 177.025 167.29V139.374C177.025 105.822 187.503 77.774 208.46 55.231C229.155 32.95 255.743 21.81 288.226 21.81C320.447 21.81 347.298 32.819 368.779 54.838C390.26 76.856 401 105.953 401 142.126V169.65ZM362.885 139.374C362.885 114.996 356.205 94.943 342.845 79.216C329.223 63.488 311.017 55.624 288.226 55.624C265.96 55.624 248.278 63.488 235.18 79.216C221.82 95.205 215.14 115.782 215.14 140.947V169.65C215.14 194.027 221.951 214.08 235.573 229.808C249.194 245.798 267.008 253.792 289.012 253.792C310.755 253.792 328.568 245.929 342.452 230.201C356.074 214.473 362.885 193.503 362.885 167.29V139.374Z" fill="white"/>
<path d="M8.48091 211.613C0.409911 206.444 -2.00009 195.742 3.07591 187.612L61.6469 93.806L120.217 -4.57764e-05H161.472L32.7589 206.145C27.5989 214.408 16.6849 216.866 8.48091 211.613Z" fill="white"/>
</g>
<defs>
<clipPath id="clip0">
<rect x="401" y="288" width="401" height="288" transform="rotate(180 401 288)" fill="white"/>
</clipPath>
</defs>
</svg>
